<mxfile host="app.diagrams.net" agent="Mozilla/5.0 (Macintosh; Intel Mac OS X 10_15_7) AppleWebKit/537.36 (KHTML, like Gecko) Chrome/128.0.0.0 Safari/537.36" version="24.7.17">
  <diagram name="Page-1" id="T7SK1rwMl8wz6rk8DOOJ">
    <mxGraphModel dx="865" dy="557" grid="1" gridSize="10" guides="1" tooltips="1" connect="1" arrows="1" fold="1" page="1" pageScale="1" pageWidth="850" pageHeight="1100" math="0" shadow="0">
      <root>
        <mxCell id="0" />
        <mxCell id="1" parent="0" />
        <mxCell id="EKZMidOivmF_EnzsxhVl-1" value="Roulette*core*" style="swimlane;fontStyle=0;childLayout=stackLayout;horizontal=1;startSize=30;horizontalStack=0;resizeParent=1;resizeParentMax=0;resizeLast=0;collapsible=1;marginBottom=0;whiteSpace=wrap;html=1;" parent="1" vertex="1">
          <mxGeometry x="220" y="30" width="180" height="190" as="geometry" />
        </mxCell>
        <mxCell id="EKZMidOivmF_EnzsxhVl-2" value="- random: Random" style="text;strokeColor=none;fillColor=none;align=left;verticalAlign=middle;spacingLeft=4;spacingRight=4;overflow=hidden;points=[[0,0.5],[1,0.5]];portConstraint=eastwest;rotatable=0;whiteSpace=wrap;html=1;" parent="EKZMidOivmF_EnzsxhVl-1" vertex="1">
          <mxGeometry y="30" width="180" height="30" as="geometry" />
        </mxCell>
        <mxCell id="EKZMidOivmF_EnzsxhVl-3" value="--------------------------------" style="text;strokeColor=none;fillColor=none;align=left;verticalAlign=middle;spacingLeft=4;spacingRight=4;overflow=hidden;points=[[0,0.5],[1,0.5]];portConstraint=eastwest;rotatable=0;whiteSpace=wrap;html=1;" parent="EKZMidOivmF_EnzsxhVl-1" vertex="1">
          <mxGeometry y="60" width="180" height="30" as="geometry" />
        </mxCell>
        <mxCell id="EKZMidOivmF_EnzsxhVl-4" value="+ playRound()&lt;div&gt;&lt;br&gt;&lt;div&gt;+ generateWinNumber()&lt;/div&gt;&lt;div&gt;&lt;br&gt;&lt;/div&gt;&lt;div&gt;+stopPlaying()&lt;/div&gt;&lt;div&gt;&lt;br&gt;&lt;/div&gt;&lt;/div&gt;" style="text;strokeColor=none;fillColor=none;align=left;verticalAlign=middle;spacingLeft=4;spacingRight=4;overflow=hidden;points=[[0,0.5],[1,0.5]];portConstraint=eastwest;rotatable=0;whiteSpace=wrap;html=1;" parent="EKZMidOivmF_EnzsxhVl-1" vertex="1">
          <mxGeometry y="90" width="180" height="100" as="geometry" />
        </mxCell>
        <mxCell id="ZOijQ91S4_rAcI0qUkDR-4" value="" style="edgeStyle=orthogonalEdgeStyle;rounded=0;orthogonalLoop=1;jettySize=auto;html=1;exitX=0.418;exitY=-0.008;exitDx=0;exitDy=0;exitPerimeter=0;" edge="1" parent="1" source="EKZMidOivmF_EnzsxhVl-5">
          <mxGeometry relative="1" as="geometry">
            <mxPoint x="390" y="350" as="sourcePoint" />
            <mxPoint x="305" y="220" as="targetPoint" />
          </mxGeometry>
        </mxCell>
        <mxCell id="ZOijQ91S4_rAcI0qUkDR-5" value="Inner class" style="edgeLabel;html=1;align=center;verticalAlign=middle;resizable=0;points=[];" vertex="1" connectable="0" parent="ZOijQ91S4_rAcI0qUkDR-4">
          <mxGeometry x="0.0034" y="-3" relative="1" as="geometry">
            <mxPoint y="1" as="offset" />
          </mxGeometry>
        </mxCell>
        <mxCell id="EKZMidOivmF_EnzsxhVl-5" value="Numbers" style="swimlane;fontStyle=0;childLayout=stackLayout;horizontal=1;startSize=30;horizontalStack=0;resizeParent=1;resizeParentMax=0;resizeLast=0;collapsible=1;marginBottom=0;whiteSpace=wrap;html=1;" parent="1" vertex="1">
          <mxGeometry x="220" y="300" width="170" height="260" as="geometry" />
        </mxCell>
        <mxCell id="EKZMidOivmF_EnzsxhVl-7" value="- blackNumbers: int[]&lt;div&gt;&lt;br&gt;&lt;/div&gt;&lt;div&gt;- redNumber : int []&lt;/div&gt;&lt;div&gt;&lt;br&gt;&lt;/div&gt;&lt;div&gt;- evenNumbers : int[]&lt;/div&gt;&lt;div&gt;&lt;br&gt;&lt;/div&gt;&lt;div&gt;- oddNumbers : int[]&lt;/div&gt;" style="text;strokeColor=none;fillColor=none;align=left;verticalAlign=middle;spacingLeft=4;spacingRight=4;overflow=hidden;points=[[0,0.5],[1,0.5]];portConstraint=eastwest;rotatable=0;whiteSpace=wrap;html=1;" parent="EKZMidOivmF_EnzsxhVl-5" vertex="1">
          <mxGeometry y="30" width="170" height="130" as="geometry" />
        </mxCell>
        <mxCell id="EKZMidOivmF_EnzsxhVl-11" value="---------------------------------------&lt;div&gt;&lt;br&gt;&lt;/div&gt;&lt;div&gt;+ getColor(int) : String&lt;/div&gt;&lt;div&gt;&lt;br&gt;&lt;/div&gt;&lt;div&gt;+ getEvenOdd(int) : String&lt;/div&gt;" style="text;strokeColor=none;fillColor=none;align=left;verticalAlign=middle;spacingLeft=4;spacingRight=4;overflow=hidden;points=[[0,0.5],[1,0.5]];portConstraint=eastwest;rotatable=0;whiteSpace=wrap;html=1;" parent="EKZMidOivmF_EnzsxhVl-5" vertex="1">
          <mxGeometry y="160" width="170" height="100" as="geometry" />
        </mxCell>
        <mxCell id="EKZMidOivmF_EnzsxhVl-16" value="Bet ( Abstract Class)&amp;nbsp;" style="swimlane;fontStyle=0;childLayout=stackLayout;horizontal=1;startSize=30;horizontalStack=0;resizeParent=1;resizeParentMax=0;resizeLast=0;collapsible=1;marginBottom=0;whiteSpace=wrap;html=1;" parent="1" vertex="1">
          <mxGeometry x="360" y="630" width="230" height="180" as="geometry" />
        </mxCell>
        <mxCell id="EKZMidOivmF_EnzsxhVl-17" value="- betAmount : int" style="text;strokeColor=none;fillColor=none;align=left;verticalAlign=middle;spacingLeft=4;spacingRight=4;overflow=hidden;points=[[0,0.5],[1,0.5]];portConstraint=eastwest;rotatable=0;whiteSpace=wrap;html=1;" parent="EKZMidOivmF_EnzsxhVl-16" vertex="1">
          <mxGeometry y="30" width="230" height="30" as="geometry" />
        </mxCell>
        <mxCell id="EKZMidOivmF_EnzsxhVl-18" value="---------------------------------------------------" style="text;strokeColor=none;fillColor=none;align=left;verticalAlign=middle;spacingLeft=4;spacingRight=4;overflow=hidden;points=[[0,0.5],[1,0.5]];portConstraint=eastwest;rotatable=0;whiteSpace=wrap;html=1;" parent="EKZMidOivmF_EnzsxhVl-16" vertex="1">
          <mxGeometry y="60" width="230" height="30" as="geometry" />
        </mxCell>
        <mxCell id="EKZMidOivmF_EnzsxhVl-19" value="+ getBetAmount()&lt;div&gt;&lt;br&gt;&lt;/div&gt;&lt;div&gt;+ setBetAmount()&lt;/div&gt;&lt;div&gt;&lt;br&gt;&lt;/div&gt;&lt;div&gt;# calcPayout ( winNumber ) : int&amp;nbsp;&lt;/div&gt;" style="text;strokeColor=none;fillColor=none;align=left;verticalAlign=middle;spacingLeft=4;spacingRight=4;overflow=hidden;points=[[0,0.5],[1,0.5]];portConstraint=eastwest;rotatable=0;whiteSpace=wrap;html=1;" parent="EKZMidOivmF_EnzsxhVl-16" vertex="1">
          <mxGeometry y="90" width="230" height="90" as="geometry" />
        </mxCell>
        <mxCell id="ZOijQ91S4_rAcI0qUkDR-6" style="edgeStyle=orthogonalEdgeStyle;rounded=0;orthogonalLoop=1;jettySize=auto;html=1;entryX=0.461;entryY=0.978;entryDx=0;entryDy=0;entryPerimeter=0;" edge="1" parent="EKZMidOivmF_EnzsxhVl-16">
          <mxGeometry relative="1" as="geometry">
            <mxPoint x="130" y="180.01999999999998" as="targetPoint" />
            <mxPoint x="298.97" y="272" as="sourcePoint" />
          </mxGeometry>
        </mxCell>
        <mxCell id="ZOijQ91S4_rAcI0qUkDR-9" value="Inherit" style="edgeLabel;html=1;align=center;verticalAlign=middle;resizable=0;points=[];" vertex="1" connectable="0" parent="ZOijQ91S4_rAcI0qUkDR-6">
          <mxGeometry x="0.2106" y="-3" relative="1" as="geometry">
            <mxPoint as="offset" />
          </mxGeometry>
        </mxCell>
        <mxCell id="EKZMidOivmF_EnzsxhVl-24" value="EvenOddBet" style="swimlane;fontStyle=0;childLayout=stackLayout;horizontal=1;startSize=30;horizontalStack=0;resizeParent=1;resizeParentMax=0;resizeLast=0;collapsible=1;marginBottom=0;whiteSpace=wrap;html=1;" parent="1" vertex="1">
          <mxGeometry x="200" y="910" width="180" height="180" as="geometry" />
        </mxCell>
        <mxCell id="EKZMidOivmF_EnzsxhVl-25" value="- chosenPolarity ? : String&amp;nbsp;" style="text;strokeColor=none;fillColor=none;align=left;verticalAlign=middle;spacingLeft=4;spacingRight=4;overflow=hidden;points=[[0,0.5],[1,0.5]];portConstraint=eastwest;rotatable=0;whiteSpace=wrap;html=1;" parent="EKZMidOivmF_EnzsxhVl-24" vertex="1">
          <mxGeometry y="30" width="180" height="60" as="geometry" />
        </mxCell>
        <mxCell id="EKZMidOivmF_EnzsxhVl-26" value="----------------------------------------" style="text;strokeColor=none;fillColor=none;align=left;verticalAlign=middle;spacingLeft=4;spacingRight=4;overflow=hidden;points=[[0,0.5],[1,0.5]];portConstraint=eastwest;rotatable=0;whiteSpace=wrap;html=1;" parent="EKZMidOivmF_EnzsxhVl-24" vertex="1">
          <mxGeometry y="90" width="180" height="40" as="geometry" />
        </mxCell>
        <mxCell id="EKZMidOivmF_EnzsxhVl-27" value="+ calcPayout()" style="text;strokeColor=none;fillColor=none;align=left;verticalAlign=middle;spacingLeft=4;spacingRight=4;overflow=hidden;points=[[0,0.5],[1,0.5]];portConstraint=eastwest;rotatable=0;whiteSpace=wrap;html=1;" parent="EKZMidOivmF_EnzsxhVl-24" vertex="1">
          <mxGeometry y="130" width="180" height="50" as="geometry" />
        </mxCell>
        <mxCell id="EKZMidOivmF_EnzsxhVl-28" value="ColorBet" style="swimlane;fontStyle=0;childLayout=stackLayout;horizontal=1;startSize=30;horizontalStack=0;resizeParent=1;resizeParentMax=0;resizeLast=0;collapsible=1;marginBottom=0;whiteSpace=wrap;html=1;" parent="1" vertex="1">
          <mxGeometry x="540" y="900" width="190" height="200" as="geometry" />
        </mxCell>
        <mxCell id="EKZMidOivmF_EnzsxhVl-29" value="- chosenColor : String" style="text;strokeColor=none;fillColor=none;align=left;verticalAlign=middle;spacingLeft=4;spacingRight=4;overflow=hidden;points=[[0,0.5],[1,0.5]];portConstraint=eastwest;rotatable=0;whiteSpace=wrap;html=1;" parent="EKZMidOivmF_EnzsxhVl-28" vertex="1">
          <mxGeometry y="30" width="190" height="40" as="geometry" />
        </mxCell>
        <mxCell id="EKZMidOivmF_EnzsxhVl-30" value="-------------------------------" style="text;strokeColor=none;fillColor=none;align=left;verticalAlign=middle;spacingLeft=4;spacingRight=4;overflow=hidden;points=[[0,0.5],[1,0.5]];portConstraint=eastwest;rotatable=0;whiteSpace=wrap;html=1;" parent="EKZMidOivmF_EnzsxhVl-28" vertex="1">
          <mxGeometry y="70" width="190" height="40" as="geometry" />
        </mxCell>
        <mxCell id="EKZMidOivmF_EnzsxhVl-31" value="+ calcPayout()" style="text;strokeColor=none;fillColor=none;align=left;verticalAlign=middle;spacingLeft=4;spacingRight=4;overflow=hidden;points=[[0,0.5],[1,0.5]];portConstraint=eastwest;rotatable=0;whiteSpace=wrap;html=1;" parent="EKZMidOivmF_EnzsxhVl-28" vertex="1">
          <mxGeometry y="110" width="190" height="90" as="geometry" />
        </mxCell>
        <mxCell id="EKZMidOivmF_EnzsxhVl-48" value="InvalidBetException" style="swimlane;fontStyle=0;childLayout=stackLayout;horizontal=1;startSize=30;horizontalStack=0;resizeParent=1;resizeParentMax=0;resizeLast=0;collapsible=1;marginBottom=0;whiteSpace=wrap;html=1;" parent="1" vertex="1">
          <mxGeometry x="440" y="290" width="200" height="100" as="geometry" />
        </mxCell>
        <mxCell id="EKZMidOivmF_EnzsxhVl-49" value="+ InvalidBetException(String)&lt;div&gt;&lt;br&gt;&lt;/div&gt;&lt;div&gt;+catchInvalidBet()&lt;/div&gt;" style="text;strokeColor=none;fillColor=none;align=left;verticalAlign=middle;spacingLeft=4;spacingRight=4;overflow=hidden;points=[[0,0.5],[1,0.5]];portConstraint=eastwest;rotatable=0;whiteSpace=wrap;html=1;" parent="EKZMidOivmF_EnzsxhVl-48" vertex="1">
          <mxGeometry y="30" width="200" height="70" as="geometry" />
        </mxCell>
        <mxCell id="EKZMidOivmF_EnzsxhVl-52" value="BetManager" style="swimlane;fontStyle=0;childLayout=stackLayout;horizontal=1;startSize=30;horizontalStack=0;resizeParent=1;resizeParentMax=0;resizeLast=0;collapsible=1;marginBottom=0;whiteSpace=wrap;html=1;" parent="1" vertex="1">
          <mxGeometry x="425" y="420" width="230" height="170" as="geometry" />
        </mxCell>
        <mxCell id="EKZMidOivmF_EnzsxhVl-53" value="- bets : ArrayList&amp;lt; Bet &amp;gt;&amp;nbsp;" style="text;strokeColor=none;fillColor=none;align=left;verticalAlign=middle;spacingLeft=4;spacingRight=4;overflow=hidden;points=[[0,0.5],[1,0.5]];portConstraint=eastwest;rotatable=0;whiteSpace=wrap;html=1;" parent="EKZMidOivmF_EnzsxhVl-52" vertex="1">
          <mxGeometry y="30" width="230" height="30" as="geometry" />
        </mxCell>
        <mxCell id="EKZMidOivmF_EnzsxhVl-54" value="------------------------------------------------" style="text;strokeColor=none;fillColor=none;align=left;verticalAlign=middle;spacingLeft=4;spacingRight=4;overflow=hidden;points=[[0,0.5],[1,0.5]];portConstraint=eastwest;rotatable=0;whiteSpace=wrap;html=1;" parent="EKZMidOivmF_EnzsxhVl-52" vertex="1">
          <mxGeometry y="60" width="230" height="30" as="geometry" />
        </mxCell>
        <mxCell id="EKZMidOivmF_EnzsxhVl-55" value="&lt;div&gt;&lt;br&gt;&lt;/div&gt;&lt;div&gt;+ placeBet(Bet)&amp;nbsp;&lt;/div&gt;&lt;div&gt;&lt;br&gt;&lt;/div&gt;&lt;div&gt;+calcAllPayouts(winNumber)&lt;/div&gt;" style="text;strokeColor=none;fillColor=none;align=left;verticalAlign=middle;spacingLeft=4;spacingRight=4;overflow=hidden;points=[[0,0.5],[1,0.5]];portConstraint=eastwest;rotatable=0;whiteSpace=wrap;html=1;" parent="EKZMidOivmF_EnzsxhVl-52" vertex="1">
          <mxGeometry y="90" width="230" height="80" as="geometry" />
        </mxCell>
        <mxCell id="dZEvKrb2qOtXWmYGUi7i-1" value="GUI wanted here for displaying a roulette wheel and ball on the board. Depending on how motion works, ball might be stationary as wheels rotate to show simulation of ball moving on wheel. Clickable bets will be separate board. Text display showing which number/color landed on?&amp;nbsp;&amp;nbsp;" style="rounded=0;whiteSpace=wrap;html=1;" parent="1" vertex="1">
          <mxGeometry x="470" y="30" width="240" height="190" as="geometry" />
        </mxCell>
        <mxCell id="dZEvKrb2qOtXWmYGUi7i-2" value="Display added for bet on numbers as well as bet history&amp;nbsp;&amp;nbsp;" style="whiteSpace=wrap;html=1;aspect=fixed;" parent="1" vertex="1">
          <mxGeometry x="680" y="330" width="170" height="170" as="geometry" />
        </mxCell>
        <mxCell id="ZOijQ91S4_rAcI0qUkDR-1" value="GUI added here for clickable button board showing number and color bets. Buttons could also be used to change the bet amount with each successive number or color added.&amp;nbsp;" style="whiteSpace=wrap;html=1;aspect=fixed;" vertex="1" parent="1">
          <mxGeometry x="680" y="530" width="210" height="210" as="geometry" />
        </mxCell>
        <mxCell id="ZOijQ91S4_rAcI0qUkDR-7" style="edgeStyle=orthogonalEdgeStyle;rounded=0;orthogonalLoop=1;jettySize=auto;html=1;entryX=0.483;entryY=1.011;entryDx=0;entryDy=0;entryPerimeter=0;" edge="1" parent="1" source="EKZMidOivmF_EnzsxhVl-24" target="EKZMidOivmF_EnzsxhVl-19">
          <mxGeometry relative="1" as="geometry" />
        </mxCell>
        <mxCell id="ZOijQ91S4_rAcI0qUkDR-8" value="Inherit" style="edgeLabel;html=1;align=center;verticalAlign=middle;resizable=0;points=[];" vertex="1" connectable="0" parent="ZOijQ91S4_rAcI0qUkDR-7">
          <mxGeometry x="-0.2217" y="-1" relative="1" as="geometry">
            <mxPoint as="offset" />
          </mxGeometry>
        </mxCell>
      </root>
    </mxGraphModel>
  </diagram>
</mxfile>
